# xmcd CD database file
#
# Track frame offsets:
#	150
#	9522
#	24072
#	33305
#	51730
#	61737
#	71995
#	83762
#	94370
#	107552
#	120502
#	131802
#
# Disc length: 1921 seconds
#
# Revision: 0
# Processed by: cddbd v1.5.1PL0 Copyright (c) Steve Scherf et al.
# Submitted via: CDex 1.51
#
DISCID=9d077f0c
DTITLE=Pedro Infante - Colección de Oro Vol. 4
DYEAR=2001
DGENRE=Ranchero
TTITLE0=LasMañanitas
TTITLE1=Corazón, Corazón
TTITLE2=El Farolito
TTITLE3=Cien Años
TTITLE4=Contigo en La Distancia
TTITLE5=Duerme
TTITLE6=Amor de Mis Amores
TTITLE7=Anoche
TTITLE8=Viejos Amigos
TTITLE9=Besame en La Boca
TTITLE10=Mujer
TTITLE11=Las Tres Cosas
EXTD=YEAR: 2001
EXTT0=
EXTT1=
EXTT2=
EXTT3=
EXTT4=
EXTT5=
EXTT6=
EXTT7=
EXTT8=
EXTT9=
EXTT10=
EXTT11=
PLAYORDER=
